:SAMPLES-PER-SECOND 30
:FULLY-SPECIFIED
:DEGREES
392
root  38.7661 38.2087 17.9352 -178.264 -68.4985 170.484
RightUpLeg  -16.8334 -6.22435 -2.81014
RightLeg  3.17008 -2.991 1.24906
RightFoot  -5.85178 -0.421079 7.86097
RightToes  -1.33073e-015 0 -3.6325e-017
Spine  10.4987 -2.41461 -4.90825
Spine1  10.7361 -3.93221 3.14323
HEad  -6.16684 -32.5085 -2.04411
LeftShoulder1  0.422453 2.31939 -29.5527
LeftArm  -4.37346 7.64665 -42.835
LeftForeArm  33.7188 -3.64126 -8.70782
LeftHand  -0.027254 4.57525 0.463792
RightShoulder  -0.418023 -4.79684 25.4077
RightArm  19.7756 -8.00089 46.5564
RightForeArm  -5.48315 28.4754 6.45221
RightHand  -1.11578 8.57388 -9.60371
LeftUpLeg  14.774 4.99441 -8.01626
LeftLeg  11.3946 -8.01368 -1.03549
LeftFoot  -17.4506 0.593837 9.13863
LeftToes  -1.93726e-010 2.42366e-011 2.16268e-013
393
root  37.33 37.9565 17.5534 -178.412 -70.1335 170.499
RightUpLeg  -16.685 -5.09115 -1.81745
RightLeg  3.50504 -1.07913 0.812858
RightFoot  -4.99791 -0.397815 6.82729
RightToes  -1.33073e-015 0 -3.6325e-017
Spine  9.76157 -2.23915 -3.70424
Spine1  11.3624 -3.60095 2.90013
HEad  -7.50257 -33.1028 -0.342992
LeftShoulder1  0.309275 2.64006 -29.7188
LeftArm  -3.73958 11.8255 -42.7768
LeftForeArm  34.3111 -4.35754 -9.08823
LeftHand  -0.0279777 5.3301 0.229941
RightShoulder  -0.437026 -4.83561 25.9062
RightArm  20.5596 -7.86631 45.9238
RightForeArm  -5.79932 28.0024 6.35379
RightHand  -1.27162 8.38629 -11.031
LeftUpLeg  16.8796 4.84227 -7.76954
LeftLeg  12.6894 -8.65401 -1.14782
LeftFoot  -18.708 0.720309 9.42895
LeftToes  -1.93726e-010 2.42366e-011 2.16268e-013
394
root  35.8947 37.8111 17.1961 -179.97 -72.1005 172.337
RightUpLeg  -17.5658 -4.4077 -0.331745
RightLeg  7.3108 1.86441 0.728785
RightFoot  0.157888 -0.0649226 0.843426
RightToes  -1.33073e-015 0 -3.6325e-017
Spine  9.43247 -2.26731 -1.62661
Spine1  11.3453 -3.51334 3.10159
HEad  -8.56353 -33.6954 0.283626
LeftShoulder1  0.188991 2.98344 -30.1625
LeftArm  -3.11908 16.0862 -42.0312
LeftForeArm  34.0323 -5.59499 -9.29899
LeftHand  -0.0268917 4.93108 -0.411332
RightShoulder  -0.524503 -5.09069 26.2502
RightArm  21.2902 -7.71436 45.5544
RightForeArm  -4.99656 26.4685 5.93895
RightHand  -1.1553 7.4541 -10.7703
LeftUpLeg  18.4306 3.20762 -7.12737
LeftLeg  14.3154 -9.18006 -1.56092
LeftFoot  -19.3139 0.718152 8.62087
LeftToes  -1.93726e-010 2.42366e-011 2.16268e-013
395
root  34.4295 37.6825 16.8646 175.91 -73.6345 176.501
RightUpLeg  -18.3514 -2.99132 0.836722
RightLeg  11.872 4.12505 0.709214
RightFoot  7.60945 0.325692 -1.75556
RightToes  -1.33073e-015 0 -3.6325e-017
Spine  9.41185 -2.38571 1.76952
Spine1  11.2843 -3.18129 2.5158
HEad  -10.0923 -34.5057 0.992998
LeftShoulder1  0.186025 2.99608 -30.5702
LeftArm  -2.69505 19.8006 -41.2286
LeftForeArm  32.5472 -6.77896 -9.26047
LeftHand  -0.0378024 5.93502 -0.706344
RightShoulder  -0.585411 -5.25751 26.6394
RightArm  21.8142 -7.51472 45.3711
RightForeArm  -5.80152 23.9806 5.45621
RightHand  -1.23761 6.91299 -11.9738
LeftUpLeg  19.4069 1.27071 -5.78437
LeftLeg  17.7652 -9.39268 -2.86616
LeftFoot  -19.4234 0.618577 7.15296
LeftToes  -1.93726e-010 2.42366e-011 2.16268e-013
396
root  32.9553 37.5096 16.5344 170.787 -74.5666 -178.25
RightUpLeg  -19.1421 -1.53497 1.57807
RightLeg  18.0481 2.09711 0.507877
RightFoot  7.26498 0.349213 -1.85034
RightToes  -1.33073e-015 0 -3.6325e-017
Spine  9.21774 -2.42725 5.69773
Spine1  11.0904 -2.40597 1.10325
HEad  -10.5833 -33.4219 1.4717
LeftShoulder1  0.116863 3.1904 -31.1238
LeftArm  -3.9077 21.7446 -40.8409
LeftForeArm  31.9284 -6.40067 -8.72954
LeftHand  -0.0296768 4.44371 0.755126
RightShoulder  -0.581936 -5.23987 26.773
RightArm  20.9944 -7.10672 45.6126
RightForeArm  -6.21931 20.2877 5.37912
RightHand  -1.20866 7.74447 -10.9905
LeftUpLeg  18.3285 2.03339 -2.92624
LeftLeg  25.2244 -12.1749 -5.9448
LeftFoot  -18.2431 0.390701 4.67473
LeftToes  -1.93726e-010 2.42366e-011 2.16268e-013
397
root  31.6392 37.4311 16.1785 166.553 -75.9122 -173.41
RightUpLeg  -19.8758 -1.81161 2.31212
RightLeg  23.1641 1.05068 0.266658
RightFoot  3.61421 0.418035 -2.99545
RightToes  -1.33073e-015 0 -3.6325e-017
Spine  9.21157 -2.45921 8.28418
Spine1  10.1904 -1.9324 1.07089
HEad  -10.837 -33.8152 2.11312
LeftShoulder1  0.108503 3.21017 -30.8419
LeftArm  -5.96272 23.3995 -41.4089
LeftForeArm  31.3656 -6.18539 -7.70812
LeftHand  -0.0414932 3.002 1.29564
RightShoulder  -0.536818 -5.1031 26.7758
RightArm  18.7697 -6.73459 45.7291
RightForeArm  -5.14261 16.0711 6.26743
RightHand  -1.06791 7.11072 -10.2261
LeftUpLeg  14.3918 3.04025 0.473634
LeftLeg  35.7002 -15.6341 -11.4719
LeftFoot  -12.8809 0.100512 -0.732611
LeftToes  -1.93726e-010 2.42366e-011 2.16268e-013
398
root  30.5182 37.4029 15.8403 157.276 -78.9717 -163.336
RightUpLeg  -19.8159 -3.53372 3.32724
RightLeg  26.1956 -0.60636 -0.555788
RightFoot  0.460049 0.380221 -3.62766
RightToes  -1.33073e-015 0 -3.6325e-017
Spine  9.20517 -2.99561 10.0984
Spine1  9.54919 -2.36751 2.5187
HEad  -11.8129 -34.4135 4.06156
LeftShoulder1  0.170258 3.04097 -30.6781
LeftArm  -6.74787 23.1059 -41.9345
LeftForeArm  30.3926 -6.23994 -7.30208
LeftHand  -0.0303832 4.50883 0.770526
RightShoulder  -0.551365 -5.15162 26.6822
RightArm  16.0524 -6.55375 45.7946
RightForeArm  -4.03554 13.5398 6.74663
RightHand  -0.932531 5.97291 -9.82443
LeftUpLeg  7.65768 0.888417 3.45011
LeftLeg  47.76 -15.4111 -16.9614
LeftFoot  -3.40576 0.716251 -9.30914
LeftToes  -1.93726e-010 2.42366e-011 2.16268e-013
399
root  29.4768 37.43 15.5576 143.185 -81.5842 -149.069
RightUpLeg  -18.5256 -6.42496 4.06244
RightLeg  27.7939 -1.0995 -0.873853
RightFoot  -2.45957 0.251123 -3.43223
RightToes  -1.33073e-015 0 -3.6325e-017
Spine  9.39276 -3.5145 12.1155
Spine1  9.68531 -2.55459 3.13905
HEad  -13.4302 -34.9725 6.18127
LeftShoulder1  0.188506 2.98777 -30.4094
LeftArm  -5.40356 21.4788 -42.0669
LeftForeArm  30.342 -7.91766 -7.84899
LeftHand  -0.030804 6.07794 0.0764049
RightShoulder  -0.56494 -5.1839 26.8599
RightArm  14.7074 -6.60077 45.7151
RightForeArm  -5.53482 13.2346 6.6416
RightHand  -0.954157 6.16745 -9.88716
LeftUpLeg  0.752139 -1.52034 5.41462
LeftLeg  57.3583 -11.6402 -18.2871
LeftFoot  7.35538 2.5285 -15.8596
LeftToes  -1.93726e-010 2.42366e-011 2.16268e-013
400
root  28.3936 37.5892 15.3057 133.467 -82.8744 -140.047
RightUpLeg  -15.7273 -8.67951 3.83616
RightLeg  28.126 -0.661948 -0.633296
RightFoot  -4.94675 0.133876 -3.00245
RightToes  -1.33073e-015 0 -3.6325e-017
Spine  10.4975 -3.5902 13.5701
Spine1  9.39882 -2.01259 2.6103
HEad  -15.0348 -34.4669 8.36212
LeftShoulder1  0.190879 2.98055 -30.3914
LeftArm  -2.56518 20.1361 -42.0202
LeftForeArm  28.2152 -11.4984 -7.60823
LeftHand  -0.0298584 4.907 0.190959
RightShoulder  -0.496127 -4.97915 26.796
RightArm  15.0235 -6.50558 45.682
RightForeArm  -6.16084 13.7851 6.53796
RightHand  -0.933759 6.50582 -9.41629
LeftUpLeg  -4.01007 -1.94314 6.23511
LeftLeg  62.9721 -8.14691 -16.3385
LeftFoot  9.92888 3.0623 -16.4448
LeftToes  -1.93726e-010 2.42366e-011 2.16268e-013
401
root  27.2029 37.9581 14.9896 135.132 -84.0455 -142.34
RightUpLeg  -12.0828 -9.77726 2.51512
RightLeg  26.746 -0.322969 -0.35484
RightFoot  -6.60454 0.0671448 -2.70174
RightToes  -1.33073e-015 0 -3.6325e-017
Spine  11.0408 -3.07517 13.1032
Spine1  8.98627 -1.25209 1.68215
HEad  -15.1755 -35.249 9.58607
LeftShoulder1  0.219203 2.89635 -29.9501
LeftArm  1.84416 19.7245 -42.705
LeftForeArm  22.4154 -16.6047 -6.05314
LeftHand  -0.0445427 3.4986 1.77457
RightShoulder  -0.474031 -4.91614 26.6878
RightArm  17.3305 -5.97441 45.7737
RightForeArm  -5.80033 14.9559 6.53087
RightHand  -0.878996 6.02351 -9.23463
LeftUpLeg  -8.03086 -0.917753 5.75776
LeftLeg  65.5238 -5.85474 -13.2328
LeftFoot  6.05212 1.69572 -11.3575
LeftToes  -1.93726e-010 2.42366e-011 2.16268e-013
